<?xml version="1.0" encoding="utf-8"?>
<!-- Generator: Adobe Illustrator 22.0.0, SVG Export Plug-In . SVG Version: 6.00 Build 0)  -->
<svg version="1.1" id="Capa_1" xmlns="http://www.w3.org/2000/svg" xmlns:xlink="http://www.w3.org/1999/xlink" x="0px" y="0px"
	 viewBox="0 0 164 164" style="enable-background:new 0 0 164 164;" xml:space="preserve">
<style type="text/css">
	.st0{fill:#322E2C;}
	.st1{fill:#FFFFFF;}
	.st2{fill:#211915;}
</style>
<g>
	<g>
		
			<rect x="29.4" y="29.4" transform="matrix(0.7071 0.7071 -0.7071 0.7071 82.0001 -33.9657)" class="st0" width="105.2" height="105.2"/>
		<path class="st1" d="M82,157.8L6.2,82L82,6.2L157.8,82L82,157.8z M8.9,82L82,155.1L155.1,82L82,8.9L8.9,82z"/>
	</g>
	<g>
		<rect x="33" y="33" transform="matrix(0.7071 0.7071 -0.7071 0.7071 82.0001 -33.9657)" class="st0" width="97.9" height="97.9"/>
		<path class="st1" d="M82,151.5l-0.1-0.1L12.5,82L82,12.5L151.5,82l-0.1,0.1L82,151.5z M13,82l69,69l69-69L82,13L13,82z"/>
	</g>
	<g>
		<g>
			<path class="st1" d="M97.5,39.5L97.5,39.5c0,0-0.2-0.1-0.5-0.3c-9.1-5.9-20.9-5.9-30.1,0c-0.3,0.2-0.5,0.3-0.5,0.3
				c1.6,7.6,2.6,16.4,2.6,25.9c0,9.5-0.9,18.3-2.6,25.9h31.1c-1.6-7.6-2.6-16.4-2.6-25.9C94.9,55.9,95.9,47.1,97.5,39.5z"/>
		</g>
		<g>
			<rect x="73.5" y="92.6" class="st1" width="17.1" height="4.4"/>
		</g>
		<g>
			<g>
				<g>
					<rect x="63.8" y="52.4" class="st1" width="35.9" height="2.6"/>
				</g>
				<g>
					<path class="st1" d="M103.2,56.8h-5.4v-6.3h5.4c1.7,0,3.1,1.4,3.1,3.1l0,0C106.3,55.4,104.9,56.8,103.2,56.8z"/>
				</g>
				<g>
					<path class="st1" d="M60.8,50.5h5.4v6.3h-5.4c-1.7,0-3.1-1.4-3.1-3.1l0,0C57.7,51.9,59.1,50.5,60.8,50.5z"/>
				</g>
			</g>
			<g>
				<g>
					<rect x="63.8" y="64.1" class="st1" width="35.9" height="2.6"/>
				</g>
				<g>
					<path class="st1" d="M103.2,68.5h-5.4v-6.3h5.4c1.7,0,3.1,1.4,3.1,3.1l0,0C106.3,67.1,104.9,68.5,103.2,68.5z"/>
				</g>
				<g>
					<path class="st1" d="M60.8,62.2h5.4v6.3h-5.4c-1.7,0-3.1-1.4-3.1-3.1l0,0C57.7,63.6,59.1,62.2,60.8,62.2z"/>
				</g>
			</g>
			<g>
				<g>
					<rect x="63.8" y="75.8" class="st1" width="35.9" height="2.6"/>
				</g>
				<g>
					<path class="st1" d="M104.4,80.2h-6.6V74h6.6c1.1,0,1.9,0.9,1.9,1.9v2.4C106.3,79.4,105.5,80.2,104.4,80.2z"/>
				</g>
				<g>
					<path class="st1" d="M59.6,74h6.6v6.3h-6.6c-1.1,0-1.9-0.9-1.9-1.9v-2.4C57.7,74.8,58.5,74,59.6,74z"/>
				</g>
			</g>
			<g>
				<g>
					<g>
						<circle class="st2" cx="75.3" cy="52.4" r="2.4"/>
					</g>
					<g>
						<path class="st2" d="M77.8,65.4c0,1.3-1.1,2.4-2.4,2.4c-1.3,0-2.4-1.1-2.4-2.4c0-1.3,1.1-2.4,2.4-2.4
							C76.7,62.9,77.8,64,77.8,65.4z"/>
					</g>
					<g>
						<circle class="st2" cx="75.3" cy="78.3" r="2.4"/>
					</g>
				</g>
				<g>
					<g>
						<path class="st2" d="M91.1,52.4c0,1.3-1.1,2.4-2.4,2.4c-1.3,0-2.4-1.1-2.4-2.4c0-1.3,1.1-2.4,2.4-2.4
							C90,50,91.1,51.1,91.1,52.4z"/>
					</g>
					<g>
						<path class="st2" d="M91.1,65.4c0,1.3-1.1,2.4-2.4,2.4c-1.3,0-2.4-1.1-2.4-2.4c0-1.3,1.1-2.4,2.4-2.4
							C90,62.9,91.1,64,91.1,65.4z"/>
					</g>
					<g>
						<path class="st2" d="M91.1,78.3c0,1.3-1.1,2.4-2.4,2.4c-1.3,0-2.4-1.1-2.4-2.4c0-1.3,1.1-2.4,2.4-2.4
							C90,75.9,91.1,77,91.1,78.3z"/>
					</g>
				</g>
			</g>
		</g>
		<g>
			
				<rect x="78.8" y="52.3" transform="matrix(0.9961 -8.813768e-02 8.813768e-02 0.9961 -6.2778 7.2613)" class="st2" width="0.6" height="44.8"/>
		</g>
		<g>
			
				<rect x="77.8" y="65.3" transform="matrix(0.9981 -6.223924e-02 6.223924e-02 0.9981 -4.902 5.0183)" class="st2" width="0.6" height="31.7"/>
		</g>
		<g>
			<rect x="76.8" y="78.3" class="st2" width="0.6" height="18.7"/>
		</g>
		<g>
			
				<rect x="62.6" y="74.4" transform="matrix(8.983141e-02 -0.996 0.996 8.983141e-02 2.9242 152.6373)" class="st2" width="44.8" height="0.6"/>
		</g>
		<g>
			
				<rect x="70.1" y="80.9" transform="matrix(6.243902e-02 -0.998 0.998 6.243902e-02 -0.4409 161.9168)" class="st2" width="31.7" height="0.6"/>
		</g>
		<g>
			<rect x="86.6" y="78.3" class="st2" width="0.6" height="18.7"/>
		</g>
		<g>
			<polygon class="st2" points="82,38.1 83.1,40.3 85.5,40.6 83.8,42.3 84.2,44.8 82,43.6 79.8,44.8 80.2,42.3 78.5,40.6 80.9,40.3 
							"/>
		</g>
	</g>
	<g>
		<g>
			<polygon class="st1" points="122.5,61 112,80.4 118.3,80.6 			"/>
		</g>
		<g>
			<polygon class="st1" points="114,90.8 123.4,76.5 117.1,76.3 			"/>
		</g>
	</g>
	<g>
		<g>
			<polygon class="st1" points="41.9,61 52.4,80.4 46.1,80.6 			"/>
		</g>
		<g>
			<polygon class="st1" points="50.4,90.8 41,76.5 47.3,76.3 			"/>
		</g>
	</g>
	<g>
		<polygon points="161,138.1 3,138.1 9.8,118.1 3,98.1 161,98.1 154.2,118.1 		"/>
		<path class="st1" d="M162.4,139H1.6l7.1-20.9L1.6,97.2h160.8l-7.1,20.9L162.4,139z M4.3,137.1h155.4l-6.5-19l6.5-19H4.3l6.5,19
			L4.3,137.1z"/>
	</g>
	<g>
		<g>
			<path class="st1" d="M22.9,118.8v11h-4.5v-23.2h4.9l2.5,9.8l2.5-9.8h4.9v23.2h-4.5v-11l-2.9,9.3L22.9,118.8z"/>
		</g>
		<g>
			<path class="st1" d="M38.8,129.7c-2.7,0-3.6-1-3.6-3.6v-19.7H40v18.7c0,0.4,0.1,0.5,0.4,0.5h1.6c0.4,0,0.4-0.2,0.4-0.5v-18.7h4.7
				v19.7c0,2.6-1,3.6-3.6,3.6H38.8z"/>
		</g>
		<g>
			<path class="st1" d="M50.3,129.7l-0.8-4.3h5c0.4,0,0.5-0.1,0.5-0.5v-4.2c0-0.6-0.2-0.7-0.9-0.7h-2.4c-1.4,0-2.6-0.3-2.6-2.6v-7.9
				c0-1.8,1-3,3.1-3h6.4l0.8,4.3h-5.3c-0.4,0-0.6,0.2-0.6,0.5v4.2c0,0.5,0.2,0.6,0.7,0.6h2.9c1.5,0,2.3,0.6,2.3,2.4v7.7
				c0,2.6-0.9,3.5-3.6,3.5H50.3z"/>
		</g>
		<g>
			<path class="st1" d="M61.6,106.5h4.6v23.2h-4.6V106.5z"/>
		</g>
		<g>
			<path class="st1" d="M72.7,118.8v11h-4.5v-23.2H73l2.5,9.8l2.5-9.8H83v23.2h-4.5v-11l-2.9,9.3L72.7,118.8z"/>
		</g>
		<g>
			<path class="st1" d="M89.4,126.8l-0.4,2.9h-4.7l4.2-23.2h5l4.2,23.2H93l-0.4-2.9H89.4z M89.9,123.1h2.1l-1.1-8.2L89.9,123.1z"/>
		</g>
		<g>
			<path class="st1" d="M99.3,129.7l-0.8-4.3h5c0.4,0,0.5-0.1,0.5-0.5v-4.2c0-0.6-0.2-0.7-0.9-0.7h-2.4c-1.4,0-2.6-0.3-2.6-2.6v-7.9
				c0-1.8,1-3,3.1-3h6.4l0.8,4.3h-5.3c-0.4,0-0.6,0.2-0.6,0.5v4.2c0,0.5,0.2,0.6,0.7,0.6h2.9c1.5,0,2.3,0.6,2.3,2.4v7.7
				c0,2.6-0.9,3.5-3.6,3.5H99.3z"/>
		</g>
		<g>
			<path class="st1" d="M119.4,106.5l1.2,4.3h-3.1v18.9h-4.7v-18.9h-3.1l1.2-4.3H119.4z"/>
		</g>
		<g>
			<path class="st1" d="M121.9,106.5h9l0.8,4.3h-5.1v5.5h3.8v4h-3.8v5.1h4.9l-0.8,4.3h-8.9V106.5z"/>
		</g>
		<g>
			<path class="st1" d="M145.3,120.3c0,1-0.7,2.1-2.1,2.1l2.4,7.4h-4.8l-2.2-7.4H138v7.4h-4.6v-23.2h8.8c2.2,0,3.1,1.2,3.1,3V120.3z
				 M138,110.5v8h2.3c0.4,0,0.4-0.1,0.4-0.5V111c0-0.3-0.1-0.5-0.4-0.5H138z"/>
		</g>
	</g>
</g>
</svg>
